# xmcd
#
# Track frame offsets: 
#        150
#        18880
#        37832
#        51122
#        65175
#        88333
#        104556
#        124109
#        139043
#        159827
#        184434
#        195787
#        212299
#
# Disc length: 3125 seconds
#
# Revision: 0
# Processed by: cddbd v1.5.2PL0 Copyright (c) Steve Scherf et al.
# Submitted via: ExactAudioCopy v0.99pb3
#
DISCID=ac0c330d
DTITLE=Irini - Liebe eines Lebens
DYEAR=2008
DGENRE=Crossover
TTITLE0=Reverie
TTITLE1=Tausend weisse Pelikane
TTITLE2=Ahoi du kühner Skipper
TTITLE3=Cloud Nr. 3
TTITLE4=You smile at me
TTITLE5=Jerry
TTITLE6=One lucky Moment
TTITLE7=Mami Moja
TTITLE8=Never sink a Rainbow
TTITLE9=Sunshine in your Paradiese
TTITLE10=Ile sans-souci
TTITLE11=Safari Masai Mara
TTITLE12=Liebe eines Lebens
EXTD=
EXTT0=
EXTT1=
EXTT2=
EXTT3=
EXTT4=
EXTT5=
EXTT6=
EXTT7=
EXTT8=
EXTT9=
EXTT10=
EXTT11=
EXTT12=
PLAYORDER=
